<?xml version="1.0" encoding="UTF-8"?>
<svg xmlns="http://www.w3.org/2000/svg" viewBox="0 0 120 120" width="120" height="120" role="img" aria-hidden="true">
<defs>
    <linearGradient id="bg-p01" x1="0%" y1="0%" x2="100%" y2="100%">
      <stop offset="0%" stop-color="#f3eef8"/>
      <stop offset="45%" stop-color="#ebe4f2"/>
      <stop offset="100%" stop-color="#e4dce8"/>
    </linearGradient>
    <radialGradient id="vin-p01" cx="50%" cy="92%" r="55%">
      <stop offset="0%" stop-color="rgba(255,255,255,0.48)"/>
      <stop offset="100%" stop-color="rgba(255,255,255,0)"/>
    </radialGradient>
  </defs>
  <rect width="120" height="120" rx="24" fill="url(#bg-p01)"/>
  <ellipse cx="60" cy="108" rx="52" ry="14" fill="url(#vin-p01)" opacity="0.42"/>
  <rect x="1" y="1" width="118" height="118" rx="23" fill="none" stroke="rgba(72,64,88,0.12)" stroke-width="1"/><defs><linearGradient id="v-p01-a" x1="0%" y1="0%" x2="0%" y2="100%">
<stop offset="0%" stop-color="#f8f4fc"/><stop offset="100%" stop-color="#ddd4ec"/></linearGradient></defs>
  <path d="M44 52 h32 a6 6 0 0 1 6 6 v18 a6 6 0 0 1 -6 6 H44 a6 6 0 0 1 -6 -6V58a6 6 0 0 1 6 -6z" fill="url(#v-p01-a)" stroke="#5c5470" stroke-width="2" stroke-linejoin="round"/>
  <path d="M42 50 h36" stroke="#6a6280" stroke-width="2.2" stroke-linecap="round"/>
  <path d="M52 46 Q60 38 68 46" fill="none" stroke="#7a728e" stroke-width="1.6" stroke-linecap="round" opacity="0.55"/>
  <path d="M54 42 Q58 36 62 40 Q66 36 70 42" fill="none" stroke="#7a728e" stroke-width="1.4" stroke-linecap="round" opacity="0.45"/>
</svg>