<?xml version="1.0" encoding="UTF-8"?>
<svg xmlns="http://www.w3.org/2000/svg" viewBox="0 0 120 120" width="120" height="120" role="img" aria-hidden="true">
<defs>
    <linearGradient id="bg-p103" x1="0%" y1="0%" x2="100%" y2="100%">
      <stop offset="0%" stop-color="#f0f2f6"/>
      <stop offset="45%" stop-color="#e8ecf2"/>
      <stop offset="100%" stop-color="#e0e6ee"/>
    </linearGradient>
    <radialGradient id="vin-p103" cx="50%" cy="92%" r="55%">
      <stop offset="0%" stop-color="rgba(255,255,255,0.46)"/>
      <stop offset="100%" stop-color="rgba(255,255,255,0)"/>
    </radialGradient>
  </defs>
  <rect width="120" height="120" rx="24" fill="url(#bg-p103)"/>
  <ellipse cx="60" cy="108" rx="52" ry="14" fill="url(#vin-p103)" opacity="0.42"/>
  <rect x="1" y="1" width="118" height="118" rx="23" fill="none" stroke="rgba(56,64,80,0.1)" stroke-width="1"/>
  <path d="M46 62 H74 a3 3 0 0 1 3 3 v8 a3 3 0 0 1 -3 3 H46 a3 3 0 0 1 -3 -3v-8a3 3 0 0 1 3 -3z" fill="#f6f8fc" stroke="#505868" stroke-width="2"/>
  <path d="M50 62 v12 M58 62 v12 M66 62 v12" stroke="#5e6678" stroke-width="2.5" stroke-linecap="round"/>
</svg>