<?xml version="1.0" encoding="UTF-8"?>
<svg xmlns="http://www.w3.org/2000/svg" viewBox="0 0 120 120" width="120" height="120" role="img" aria-hidden="true">
<g transform="translate(-4 3) rotate(-5 60 60) scale(0.950)"><defs>
    <linearGradient id="bg-p131" x1="0%" y1="0%" x2="100%" y2="100%">
      <stop offset="0%" stop-color="#f2eef4"/>
      <stop offset="45%" stop-color="#ebe6ee"/>
      <stop offset="100%" stop-color="#e4dce6"/>
    </linearGradient>
    <radialGradient id="vin-p131" cx="50%" cy="92%" r="55%">
      <stop offset="0%" stop-color="rgba(255,255,255,0.47)"/>
      <stop offset="100%" stop-color="rgba(255,255,255,0)"/>
    </radialGradient>
  </defs>
  <rect width="120" height="120" rx="24" fill="url(#bg-p131)"/>
  <ellipse cx="60" cy="108" rx="52" ry="14" fill="url(#vin-p131)" opacity="0.42"/>
  <rect x="1" y="1" width="118" height="118" rx="23" fill="none" stroke="rgba(72,64,80,0.1)" stroke-width="1"/>
  <path d="M40 58 h40 a2 2 0 0 1 2 2 v8 a2 2 0 0 1 -2 2 H40 a2 2 0 0 1 -2 -2v-8a2 2 0 0 1 2 -2z" fill="#eae2ee" stroke="#584c64" stroke-width="2"/>
  <path d="M44 54 h32" stroke="#665a72" stroke-width="2.5" stroke-linecap="round"/></g>
</svg>