<?xml version="1.0" encoding="UTF-8"?>
<svg xmlns="http://www.w3.org/2000/svg" viewBox="0 0 120 120" width="120" height="120" role="img" aria-hidden="true">
<defs>
    <linearGradient id="bg-p132" x1="0%" y1="0%" x2="100%" y2="100%">
      <stop offset="0%" stop-color="#f0eef3"/>
      <stop offset="45%" stop-color="#ebe9ef"/>
      <stop offset="100%" stop-color="#e6e4ea"/>
    </linearGradient>
    <radialGradient id="vin-p132" cx="50%" cy="92%" r="55%">
      <stop offset="0%" stop-color="rgba(255,255,255,0.5)"/>
      <stop offset="100%" stop-color="rgba(255,255,255,0)"/>
    </radialGradient>
  </defs>
  <rect width="120" height="120" rx="24" fill="url(#bg-p132)"/>
  <ellipse cx="60" cy="108" rx="52" ry="14" fill="url(#vin-p132)" opacity="0.45"/>
  <rect x="1" y="1" width="118" height="118" rx="23" fill="none" stroke="rgba(45,52,64,0.1)" stroke-width="1"/>
  <path d="M40 58 h40 a4 4 0 0 1 4 4 v16 a4 4 0 0 1 -4 4 H40 a4 4 0 0 1 -4 -4V62a4 4 0 0 1 4 -4z" fill="#e2dfe8" stroke="#4d5664" stroke-width="2"/>
  <path d="M48 58 v16 M56 58 v16 M64 58 v16 M72 58 v12" stroke="#5c6573" stroke-width="3" stroke-linecap="round"/>
</svg>