<?xml version="1.0" encoding="UTF-8"?>
<svg xmlns="http://www.w3.org/2000/svg" viewBox="0 0 120 120" width="120" height="120" role="img" aria-hidden="true">
<defs>
    <linearGradient id="bg-p17" x1="0%" y1="0%" x2="100%" y2="100%">
      <stop offset="0%" stop-color="#f2f0f5"/>
      <stop offset="45%" stop-color="#ebe8f0"/>
      <stop offset="100%" stop-color="#e4e0ea"/>
    </linearGradient>
    <radialGradient id="vin-p17" cx="50%" cy="92%" r="55%">
      <stop offset="0%" stop-color="rgba(255,255,255,0.45)"/>
      <stop offset="100%" stop-color="rgba(255,255,255,0)"/>
    </radialGradient>
  </defs>
  <rect width="120" height="120" rx="24" fill="url(#bg-p17)"/>
  <ellipse cx="60" cy="108" rx="52" ry="14" fill="url(#vin-p17)" opacity="0.42"/>
  <rect x="1" y="1" width="118" height="118" rx="23" fill="none" stroke="rgba(64,60,80,0.11)" stroke-width="1"/><g stroke="none"><path d="M60 72c-16 0-28-10-28-22h10c0 8 8 14 18 14s18-6 18-14h10c0 12-12 22-28 22z" fill="#e8e4f0" opacity=".95"/><path d="M60 62c-10 0-18-6-18-14h8c0 5 4 8 10 8s10-3 10-8h8c0 8-8 14-18 14z" fill="#66627a"/><path d="M60 54c-6 0-10-4-10-8h20c0 4-4 8-10 8z" fill="#585468"/></g>
</svg>