<?xml version="1.0" encoding="UTF-8"?>
<svg xmlns="http://www.w3.org/2000/svg" viewBox="0 0 120 120" width="120" height="120" role="img" aria-hidden="true" shape-rendering="geometricPrecision">
<defs>
    <linearGradient id="bg-p17" x1="0%" y1="0%" x2="100%" y2="100%">
      <stop offset="0%" stop-color="#e8f4fc"/>
      <stop offset="50%" stop-color="#dceafc"/>
      <stop offset="100%" stop-color="#d0e0f8"/>
    </linearGradient>
  </defs>
  <rect width="120" height="120" rx="24" fill="url(#bg-p17)"/>
  <rect x="1" y="1" width="118" height="118" rx="23" fill="none" stroke="rgba(56,88,140,0.1)" stroke-width="1"/><g stroke="none"><path d="M60 72c-16 0-28-10-28-22h10c0 8 8 14 18 14s18-6 18-14h10c0 12-12 22-28 22z" fill="#e4eef8" opacity=".95"/><path d="M60 62c-10 0-18-6-18-14h8c0 5 4 8 10 8s10-3 10-8h8c0 8-8 14-18 14z" fill="#567090"/><path d="M60 54c-6 0-10-4-10-8h20c0 4-4 8-10 8z" fill="#486080"/></g>
</svg>