<?xml version="1.0" encoding="UTF-8"?>
<svg xmlns="http://www.w3.org/2000/svg" viewBox="0 0 120 120" width="120" height="120" role="img" aria-hidden="true">
<g transform="translate(-4 -4) rotate(5 60 60) scale(0.970)"><defs>
    <linearGradient id="bg-p188" x1="0%" y1="0%" x2="100%" y2="100%">
      <stop offset="0%" stop-color="#f0eef3"/>
      <stop offset="45%" stop-color="#ebe9ef"/>
      <stop offset="100%" stop-color="#e6e4ea"/>
    </linearGradient>
    <radialGradient id="vin-p188" cx="50%" cy="92%" r="55%">
      <stop offset="0%" stop-color="rgba(255,255,255,0.5)"/>
      <stop offset="100%" stop-color="rgba(255,255,255,0)"/>
    </radialGradient>
  </defs>
  <rect width="120" height="120" rx="24" fill="url(#bg-p188)"/>
  <ellipse cx="60" cy="108" rx="52" ry="14" fill="url(#vin-p188)" opacity="0.45"/>
  <rect x="1" y="1" width="118" height="118" rx="23" fill="none" stroke="rgba(45,52,64,0.1)" stroke-width="1"/>
  <path d="M60 40 C45 40 38 55 38 62 C38 72 48 82 60 82 C72 82 82 72 82 62 C82 52 75 40 60 40" fill="#e2dfe8" stroke="#5c6573" stroke-width="2"/>
  <ellipse cx="52" cy="58" rx="4" ry="5" fill="#4d5664"/><ellipse cx="68" cy="58" rx="4" ry="5" fill="#4d5664"/>
  <path d="M48 72 Q60 62 72 72" fill="none" stroke="#4d5664" stroke-width="2.5" stroke-linecap="round"/></g>
</svg>