<?xml version="1.0" encoding="UTF-8"?>
<svg xmlns="http://www.w3.org/2000/svg" viewBox="0 0 120 120" width="120" height="120" role="img" aria-hidden="true">
<g transform="translate(2 -4) rotate(5 60 60) scale(0.970)"><defs>
    <linearGradient id="bg-p108" x1="0%" y1="0%" x2="100%" y2="100%">
      <stop offset="0%" stop-color="#f3eef8"/>
      <stop offset="45%" stop-color="#ebe4f2"/>
      <stop offset="100%" stop-color="#e4dce8"/>
    </linearGradient>
    <radialGradient id="vin-p108" cx="50%" cy="92%" r="55%">
      <stop offset="0%" stop-color="rgba(255,255,255,0.48)"/>
      <stop offset="100%" stop-color="rgba(255,255,255,0)"/>
    </radialGradient>
  </defs>
  <rect width="120" height="120" rx="24" fill="url(#bg-p108)"/>
  <ellipse cx="60" cy="108" rx="52" ry="14" fill="url(#vin-p108)" opacity="0.42"/>
  <rect x="1" y="1" width="118" height="118" rx="23" fill="none" stroke="rgba(72,64,88,0.12)" stroke-width="1"/><defs><linearGradient id="v-p108-b" x1="0%" y1="0%" x2="0%" y2="100%">
<stop offset="0%" stop-color="#f8f4fc"/><stop offset="100%" stop-color="#ddd4ec"/></linearGradient></defs>
  <path d="M42 54 h36 a4 4 0 0 1 4 4 v16 a4 4 0 0 1 -4 4 H42 a4 4 0 0 1 -4 -4V58a4 4 0 0 1 4 -4z" fill="url(#v-p108-b)" stroke="#2d2838" stroke-width="2.5" stroke-linejoin="round"/>
  <path d="M40 52 h40" stroke="#3d3648" stroke-width="2.5"/>
  <path d="M48 44 L52 38 L56 44 M64 44 L68 38 L72 44" fill="none" stroke="#3d3648" stroke-width="1.8" stroke-linecap="round"/>
  <circle cx="72" cy="68" r="3" fill="#3d3648" opacity="0.5"/></g>
</svg>