<?xml version="1.0" encoding="UTF-8"?>
<svg xmlns="http://www.w3.org/2000/svg" viewBox="0 0 120 120" width="120" height="120" role="img" aria-hidden="true">
<g transform="translate(2 3) rotate(-5 60 60) scale(0.960)"><defs>
    <linearGradient id="bg-p117" x1="0%" y1="0%" x2="100%" y2="100%">
      <stop offset="0%" stop-color="#f2f0f5"/>
      <stop offset="45%" stop-color="#ebe8f0"/>
      <stop offset="100%" stop-color="#e4e0ea"/>
    </linearGradient>
    <radialGradient id="vin-p117" cx="50%" cy="92%" r="55%">
      <stop offset="0%" stop-color="rgba(255,255,255,0.45)"/>
      <stop offset="100%" stop-color="rgba(255,255,255,0)"/>
    </radialGradient>
  </defs>
  <rect width="120" height="120" rx="24" fill="url(#bg-p117)"/>
  <ellipse cx="60" cy="108" rx="52" ry="14" fill="url(#vin-p117)" opacity="0.42"/>
  <rect x="1" y="1" width="118" height="118" rx="23" fill="none" stroke="rgba(64,60,80,0.11)" stroke-width="1"/><g stroke="none"><path d="M60 74c-18 0-30-12-28-24l10 2c-2 8 6 14 18 14s20-6 18-14l10-2c2 12-10 24-28 24z" fill="#a69ebc"/><path d="M42 50c12-6 24-6 36 0l-6 8c-8-4-16-4-24 0z" fill="#3c3848"/><path d="M48 58h24" stroke="#2c2834" stroke-width="3" stroke-linecap="round"/></g></g>
</svg>