<?xml version="1.0" encoding="UTF-8"?>
<svg xmlns="http://www.w3.org/2000/svg" viewBox="0 0 120 120" width="120" height="120" role="img" aria-hidden="true" shape-rendering="geometricPrecision">
<defs>
    <linearGradient id="bg-p117" x1="0%" y1="0%" x2="100%" y2="100%">
      <stop offset="0%" stop-color="#e8f4fc"/>
      <stop offset="50%" stop-color="#dceafc"/>
      <stop offset="100%" stop-color="#d0e0f8"/>
    </linearGradient>
  </defs>
  <rect width="120" height="120" rx="24" fill="url(#bg-p117)"/>
  <rect x="1" y="1" width="118" height="118" rx="23" fill="none" stroke="rgba(56,88,140,0.1)" stroke-width="1"/><g stroke="none"><path d="M60 74c-18 0-30-12-28-24l10 2c-2 8 6 14 18 14s20-6 18-14l10-2c2 12-10 24-28 24z" fill="#84a4c8"/><path d="M42 50c12-6 24-6 36 0l-6 8c-8-4-16-4-24 0z" fill="#344454"/><path d="M48 58h24" stroke="#243444" stroke-width="3" stroke-linecap="round"/></g>
</svg>