<?xml version="1.0" encoding="UTF-8"?>
<svg xmlns="http://www.w3.org/2000/svg" viewBox="0 0 120 120" width="120" height="120" role="img" aria-hidden="true">
<defs>
    <linearGradient id="bg-p37" x1="0%" y1="0%" x2="100%" y2="100%">
      <stop offset="0%" stop-color="#f0eef3"/>
      <stop offset="45%" stop-color="#ebe9ef"/>
      <stop offset="100%" stop-color="#e6e4ea"/>
    </linearGradient>
    <radialGradient id="vin-p37" cx="50%" cy="92%" r="55%">
      <stop offset="0%" stop-color="rgba(255,255,255,0.5)"/>
      <stop offset="100%" stop-color="rgba(255,255,255,0)"/>
    </radialGradient>
  </defs>
  <rect width="120" height="120" rx="24" fill="url(#bg-p37)"/>
  <ellipse cx="60" cy="108" rx="52" ry="14" fill="url(#vin-p37)" opacity="0.45"/>
  <rect x="1" y="1" width="118" height="118" rx="23" fill="none" stroke="rgba(45,52,64,0.1)" stroke-width="1"/><defs><linearGradient id="v-p37-b" x1="0%" y1="0%" x2="0%" y2="100%">
<stop offset="0%" stop-color="#f4f2f6"/><stop offset="100%" stop-color="#d8d6de"/></linearGradient></defs>
  <path d="M42 54 h36 a4 4 0 0 1 4 4 v16 a4 4 0 0 1 -4 4 H42 a4 4 0 0 1 -4 -4V58a4 4 0 0 1 4 -4z" fill="url(#v-p37-b)" stroke="#2a303c" stroke-width="2.5" stroke-linejoin="round"/>
  <path d="M40 52 h40" stroke="#3a4250" stroke-width="2.5"/>
  <path d="M48 44 L52 38 L56 44 M64 44 L68 38 L72 44" fill="none" stroke="#3a4250" stroke-width="1.8" stroke-linecap="round"/>
  <circle cx="72" cy="68" r="3" fill="#3a4250" opacity="0.5"/>
</svg>